<svg xmlns="http://www.w3.org/2000/svg" xmlns:xlink="http://www.w3.org/1999/xlink" x="0px" y="0px"
  width="298px" height="345px" viewBox="0 0 298 345" enable-background="new 0 0 298 345" xml:space="preserve">
  <path fill="#dEdEdE" d="M264.586,102.035l5.35-5.359c7.72-7.718,9.13-18.935,3.13-24.924c-6-5.988-17.22-4.599-24.93,3.12
  l-5.39,5.389c-21.442-17.413-47.326-28.487-74.73-31.972V38.7h7.66c10.91,0,19.84-8.708,19.84-19.345
  c0-10.638-8.93-19.355-19.84-19.355h-53.32c-10.91,0-19.84,8.708-19.84,19.355c0,10.647,8.93,19.345,19.84,19.345h7.66v9.588
  c-32.731,4.204-63.142,19.152-86.459,42.5c-23.316,23.349-38.22,53.774-42.372,86.505c-4.152,32.731,2.682,65.914,19.43,94.342
  c16.748,28.429,42.463,50.494,73.108,62.734c30.646,12.239,64.49,13.962,96.221,4.896c31.731-9.066,59.554-28.408,79.103-54.988
  c19.548-26.582,29.717-58.9,28.909-91.883C297.149,159.411,285.412,127.629,264.586,102.035z M149.016,306.184
  c-21.79,0-43.09-6.459-61.208-18.563c-18.117-12.104-32.238-29.307-40.576-49.432c-8.338-20.127-10.52-42.273-6.268-63.64
  c4.252-21.366,14.745-40.992,30.154-56.395c15.408-15.403,35.04-25.893,56.41-30.142c21.372-4.249,43.524-2.066,63.655,6.272
  c20.13,8.338,37.336,22.457,49.44,40.571c12.104,18.114,18.563,39.411,18.562,61.194c-0.002,29.21-11.61,57.223-32.271,77.876
  C206.254,294.581,178.234,306.184,149.016,306.184z"/>
  <circle fill="none" stroke="#D22856" stroke-width="18" cx="149" cy="196" r="117"/>
  <path fill="#D22856" d="M145.133,239H85.25v-12.598l21.504-21.738c6.367-6.523,10.526-11.035,12.479-13.535
  c1.954-2.539,3.36-4.883,4.22-7.031c0.858-2.148,1.289-4.375,1.289-6.68c0-3.438-0.957-5.996-2.871-7.676
  c-1.875-1.68-4.395-2.519-7.56-2.519c-3.319,0-6.542,0.761-9.667,2.285c-3.125,1.523-6.387,3.691-9.785,6.504l-9.844-11.66
  c4.219-3.594,7.715-6.133,10.488-7.618c2.773-1.484,5.801-2.617,9.082-3.398c3.281-0.82,6.953-1.231,11.016-1.231
  c5.352,0,10.078,0.977,14.179,2.93c4.103,1.953,7.285,4.688,9.552,8.203c2.266,3.516,3.397,7.539,3.397,12.07
  c0,3.945-0.703,7.656-2.108,11.133c-1.367,3.438-3.517,6.973-6.445,10.605c-2.891,3.633-8.008,8.809-15.352,15.527l-11.016,10.371
  v0.82h37.324V239z M215.621,221.246h-10.313V239h-17.696v-17.754h-36.562v-12.598l37.558-55.313h16.7v53.848h10.313V221.246z
  M187.613,207.184v-14.531c0-2.422,0.099-5.938,0.293-10.547c0.196-4.609,0.353-7.285,0.47-8.027h-0.47
  c-1.444,3.203-3.183,6.328-5.215,9.375l-15.703,23.73H187.613z"/>
</svg>
