<svg xmlns="http://www.w3.org/2000/svg" width="152.000000pt" height="152.000000pt" viewBox="0 0 152.000000 152.000000" preserveAspectRatio="xMidYMid meet">
  <g transform="translate(0.000000,152.000000) scale(0.100000,-0.100000)"
  fill="#000000" stroke="none">
    <path d="M433 1065 c-17 -7 -39 -24 -47 -37 -19 -29 -109 -386 -100 -399 3 -5
    20 -9 38 -9 17 0 37 -5 44 -12 9 -9 12 -9 12 0 0 7 6 12 14 12 9 0 17 15 21
    40 23 137 204 164 268 40 49 -94 -33 -210 -138 -196 -22 3 -55 9 -73 12 -29 6
    -33 4 -30 -12 4 -21 43 -43 91 -51 78 -12 176 47 202 122 17 50 33 51 50 1 55
    -160 280 -167 352 -10 24 52 26 54 64 54 21 0 39 4 39 10 0 29 -93 378 -106
    398 -31 48 -129 68 -129 27 0 -14 9 -21 35 -26 19 -4 42 -17 51 -28 15 -18 89
    -295 89 -330 0 -6 -7 -11 -15 -11 -8 0 -15 8 -15 18 0 26 -51 101 -74 108 -31
    10 -37 -17 -11 -48 84 -100 26 -238 -102 -238 -79 0 -137 61 -139 145 -1 83
    -23 112 -40 53 -13 -44 -33 -42 -49 6 -40 115 -182 160 -287 91 -36 -24 -78
    -88 -78 -120 0 -8 -7 -15 -15 -15 -8 0 -15 6 -15 13 0 35 74 310 89 328 9 11
    32 24 51 28 26 5 36 13 38 29 3 18 -1 22 -25 22 -15 -1 -42 -7 -60 -15z"/>
  </g>
</svg>
